<svg width="54" height="54" viewBox="0 0 54 54" fill="none" xmlns="http://www.w3.org/2000/svg">
<path d="M1.19329 31.05H27.1559C27.8125 31.05 28.3496 31.5502 28.3496 32.1614V47.7207C28.3496 48.332 27.8125 48.8321 27.1559 48.8321H13.6971L7.10203 53.75C6.89313 53.9167 6.62455 54 6.35597 54C6.17692 54 5.99787 53.9723 5.84866 53.8889C5.43087 53.6944 5.16229 53.3054 5.16229 52.8887V48.8321H1.19329C0.536762 48.8321 -0.000393629 48.332 -0.000393629 47.7207V32.1614C-0.000393629 31.5502 0.536762 31.05 1.19329 31.05Z" fill="#F05BA6" fill-opacity="0.85"/>
<path d="M1.05065 17.9799L22.6302 0.384801C22.8743 0.175152 23.1681 0.0451057 23.4775 0.00977766C23.7869 -0.0255504 24.0991 0.0352911 24.378 0.185229C24.6568 0.335167 24.8907 0.568044 25.0526 0.856792C25.2145 1.14554 25.2977 1.4783 25.2925 1.81639V11.085C48.8138 11.085 53.2716 28.827 53.9977 38.3159C54.016 38.6952 53.9257 39.0713 53.7392 39.3924C53.5526 39.7136 53.279 39.9639 52.956 40.1089C52.6331 40.2538 52.2767 40.2863 51.936 40.2019C51.5953 40.1174 51.2872 39.9202 51.054 39.6374C40.6132 26.3798 25.2925 29.4388 25.2925 29.4388V38.7074C25.2935 39.0402 25.209 39.3667 25.0485 39.6501C24.888 39.9335 24.6578 40.1626 24.384 40.3114C24.1101 40.4602 23.8035 40.523 23.4986 40.4925C23.1937 40.462 22.9027 40.3396 22.6583 40.139L1.05065 22.55C0.724413 22.2839 0.459643 21.9388 0.277288 21.5422C0.0949336 21.1456 0 20.7083 0 20.265C0 19.8216 0.0949336 19.3843 0.277288 18.9877C0.459643 18.5911 0.724413 18.2461 1.05065 17.9799Z" fill="#9966FF" fill-opacity="0.85"/>
</svg>
