<svg width="56" height="53" viewBox="0 0 56 53" fill="none" xmlns="http://www.w3.org/2000/svg">
<rect y="24" width="29" height="29" rx="2" fill="#9966FF" fill-opacity="0.85"/>
<path fill-rule="evenodd" clip-rule="evenodd" d="M31.5061 21.3583C33.2038 23.056 33.2038 25.8085 31.5061 27.5062C29.8084 29.2039 27.0559 29.2039 25.3582 27.5062C23.6605 25.8085 23.6605 23.056 25.3582 21.3583C27.0559 19.6606 29.8084 19.6606 31.5061 21.3583ZM49.872 35.9836C54.8458 26.7606 53.4379 15.0058 45.6483 7.21616C36.1401 -2.29202 20.7243 -2.29202 11.2161 7.21616C1.7079 16.7243 1.70791 32.1402 11.2161 41.6483C19.4379 49.8702 32.077 50.9825 41.494 44.9853L46.5086 49.9999C46.8991 50.3904 47.5323 50.3904 47.9228 49.9999L55.1985 42.7242C55.589 42.3337 55.589 41.7006 55.1985 41.31L49.872 35.9836Z" fill="#F05BA6" fill-opacity="0.85"/>
</svg>
