<svg width="56" height="56" viewBox="0 0 56 56" fill="none" xmlns="http://www.w3.org/2000/svg">
<path d="M1.76842 3H40.2316C41.2042 3 42 3.87167 42 4.93705V32.0557C42 33.1211 41.2042 33.9927 40.2316 33.9927H20.2926L10.5221 42.5642C10.2126 42.8547 9.81474 43 9.41684 43C9.15158 43 8.88632 42.9516 8.66526 42.8063C8.04632 42.4673 7.64842 41.7893 7.64842 41.063V33.9927H1.76842C0.795789 33.9927 -2.98023e-08 33.1211 -2.98023e-08 32.0557V4.93705C-2.98023e-08 3.87167 0.795789 3 1.76842 3Z" fill="#9966FF" fill-opacity="0.85"/>
<path d="M54.2316 17H15.7684C14.7958 17 14 17.8499 14 18.8886V45.3293C14 46.368 14.7958 47.2179 15.7684 47.2179H35.7074L45.4779 55.5751C45.7874 55.8584 46.1853 56 46.5832 56C46.8484 56 47.1137 55.9528 47.3347 55.8111C47.9537 55.4806 48.3516 54.8196 48.3516 54.1114V47.2179H54.2316C55.2042 47.2179 56 46.368 56 45.3293V18.8886C56 17.8499 55.2042 17 54.2316 17Z" fill="#F05BA6" fill-opacity="0.85"/>
</svg>
